solid part1
facet normal -1.0 0.0 0.0
   outer loop
      vertex 26.7965357448676 22.1880705814667 3.625
      vertex 26.7965357448676 14.3130705814667 0.0
      vertex 26.7965357448676 14.3130705814667 3.625
   endloop
endfacet
facet normal -1.0 0.0 0.0
   outer loop
      vertex 26.7965357448676 14.3130705814667 0.0
      vertex 26.7965357448676 22.1880705814667 3.625
      vertex 26.7965357448676 22.1880705814667 0.0
   endloop
endfacet
facet normal 6.70866520288106e-33 1.0 7.91974863968429e-31
   outer loop
      vertex 26.7965357448676 22.1880705814667 3.625
      vertex 33.7340357448676 22.1880705814667 0.0
      vertex 26.7965357448676 22.1880705814667 0.0
   endloop
endfacet
facet normal 6.70866520288106e-33 1.0 7.91974863968429e-31
   outer loop
      vertex 33.7340357448676 22.1880705814667 0.0
      vertex 26.7965357448676 22.1880705814667 3.625
      vertex 29.744864757222 22.1880705814667 2.55761148328362
   endloop
endfacet
facet normal 6.70866520288106e-33 1.0 7.91974863968429e-31
   outer loop
      vertex 33.7340357448676 22.1880705814667 0.0
      vertex 29.744864757222 22.1880705814667 2.55761148328362
      vertex 30.0388581490078 22.1880705814667 2.45928700194553
   endloop
endfacet
facet normal 6.70866520288106e-33 1.0 7.91974863968429e-31
   outer loop
      vertex 33.7340357448676 22.1880705814667 0.0
      vertex 30.0388581490078 22.1880705814667 2.45928700194553
      vertex 30.3482822072621 22.1880705814667 2.44040393499303
   endloop
endfacet
facet normal 6.70866520288106e-33 1.0 7.91974863968429e-31
   outer loop
      vertex 29.744864757222 22.1880705814667 2.55761148328362
      vertex 26.7965357448676 22.1880705814667 3.625
      vertex 29.4863371957079 22.1880705814667 2.72867672809301
   endloop
endfacet
facet normal 6.70866520288106e-33 1.0 7.91974863968429e-31
   outer loop
      vertex 29.4863371957079 22.1880705814667 2.72867672809301
      vertex 26.7965357448676 22.1880705814667 3.625
      vertex 29.2808936905457 22.1880705814667 2.96082492263861
   endloop
endfacet
facet normal 6.70866520288106e-33 1.0 7.91974863968429e-31
   outer loop
      vertex 29.2808936905457 22.1880705814667 2.96082492263861
      vertex 26.7965357448676 22.1880705814667 3.625
      vertex 29.1425348771008 22.1880705814667 3.23823555110519
   endloop
endfacet
facet normal 6.70866520288106e-33 1.0 7.91974863968429e-31
   outer loop
      vertex 29.1425348771008 22.1880705814667 3.23823555110519
      vertex 26.7965357448676 22.1880705814667 3.625
      vertex 29.0806896798606 22.1880705814667 3.54200353760547
   endloop
endfacet
facet normal 6.70866520288106e-33 1.0 7.91974863968429e-31
   outer loop
      vertex 29.0806896798606 22.1880705814667 3.54200353760547
      vertex 26.7965357448676 22.1880705814667 3.625
      vertex 29.0857546633821 22.1880705814667 3.625
   endloop
endfacet
facet normal 6.70866520288106e-33 1.0 7.91974863968429e-31
   outer loop
      vertex 33.7340357448676 22.1880705814667 0.0
      vertex 30.6520501937624 22.1880705814667 2.5022491322332
      vertex 33.7340357448676 22.1880705814667 3.625
   endloop
endfacet
facet normal 6.70866520288106e-33 1.0 7.91974863968429e-31
   outer loop
      vertex 30.6520501937624 22.1880705814667 2.5022491322332
      vertex 33.7340357448676 22.1880705814667 0.0
      vertex 30.3482822072621 22.1880705814667 2.44040393499303
   endloop
endfacet
facet normal 6.70866520288106e-33 1.0 7.91974863968429e-31
   outer loop
      vertex 33.7340357448676 22.1880705814667 3.625
      vertex 30.6520501937624 22.1880705814667 2.5022491322332
      vertex 30.929460822229 22.1880705814667 2.64060794567815
   endloop
endfacet
facet normal 6.70866520288106e-33 1.0 7.91974863968429e-31
   outer loop
      vertex 33.7340357448676 22.1880705814667 3.625
      vertex 30.929460822229 22.1880705814667 2.64060794567815
      vertex 31.1616090167746 22.1880705814667 2.84605145084034
   endloop
endfacet
facet normal 6.70866520288106e-33 1.0 7.91974863968429e-31
   outer loop
      vertex 33.7340357448676 22.1880705814667 3.625
      vertex 31.1616090167746 22.1880705814667 2.84605145084034
      vertex 31.332674261584 22.1880705814667 3.10457901235442
   endloop
endfacet
facet normal 6.70866520288106e-33 1.0 7.91974863968429e-31
   outer loop
      vertex 33.7340357448676 22.1880705814667 3.625
      vertex 31.332674261584 22.1880705814667 3.10457901235442
      vertex 31.4309987429221 22.1880705814667 3.3985724041402
   endloop
endfacet
facet normal 6.70866520288106e-33 1.0 7.91974863968429e-31
   outer loop
      vertex 33.7340357448676 22.1880705814667 3.625
      vertex 31.4309987429221 22.1880705814667 3.3985724041402
      vertex 31.444816826353 22.1880705814667 3.625
   endloop
endfacet
facet normal 1.0 0.0 0.0
   outer loop
      vertex 33.7340357448676 22.1880705814667 0.0
      vertex 33.7340357448676 14.3130705814667 3.625
      vertex 33.7340357448676 14.3130705814667 0.0
   endloop
endfacet
facet normal 1.0 0.0 0.0
   outer loop
      vertex 33.7340357448676 14.3130705814667 3.625
      vertex 33.7340357448676 22.1880705814667 0.0
      vertex 33.7340357448676 22.1880705814667 3.625
   endloop
endfacet
facet normal 0.0 -1.0 0.0
   outer loop
      vertex 33.7340357448676 14.3130705814667 0.0
      vertex 32.1621531155015 14.3130705814667 2.375
      vertex 26.7965357448676 14.3130705814667 0.0
   endloop
endfacet
facet normal 0.0 -1.0 0.0
   outer loop
      vertex 32.1621531155015 14.3130705814667 2.375
      vertex 33.7340357448676 14.3130705814667 0.0
      vertex 33.7340357448676 14.3130705814667 3.625
   endloop
endfacet
facet normal 0.0 -1.0 0.0
   outer loop
      vertex 32.1621531155015 14.3130705814667 2.375
      vertex 33.7340357448676 14.3130705814667 3.625
      vertex 32.1621531155015 14.3130705814667 3.625
   endloop
endfacet
facet normal 0.0 -1.0 0.0
   outer loop
      vertex 31.2246531155015 14.3130705814667 3.625
      vertex 29.4782514263839 14.3130705814667 2.375
      vertex 31.2246531155015 14.3130705814667 2.375
   endloop
endfacet
facet normal 0.0 -1.0 0.0
   outer loop
      vertex 29.4782514263839 14.3130705814667 2.375
      vertex 31.2246531155015 14.3130705814667 3.625
      vertex 29.4782514263839 14.3130705814667 3.625
   endloop
endfacet
facet normal 0.0 -1.0 0.0
   outer loop
      vertex 26.7965357448676 14.3130705814667 0.0
      vertex 28.6032514263839 14.3130705814667 2.375
      vertex 26.7965357448676 14.3130705814667 3.625
   endloop
endfacet
facet normal 0.0 -1.0 0.0
   outer loop
      vertex 28.6032514263839 14.3130705814667 2.375
      vertex 26.7965357448676 14.3130705814667 0.0
      vertex 32.1621531155015 14.3130705814667 2.375
   endloop
endfacet
facet normal 0.0 -1.0 0.0
   outer loop
      vertex 28.6032514263839 14.3130705814667 2.375
      vertex 32.1621531155015 14.3130705814667 2.375
      vertex 31.2246531155015 14.3130705814667 2.375
   endloop
endfacet
facet normal 0.0 -1.0 0.0
   outer loop
      vertex 28.6032514263839 14.3130705814667 2.375
      vertex 31.2246531155015 14.3130705814667 2.375
      vertex 29.4782514263839 14.3130705814667 2.375
   endloop
endfacet
facet normal 0.0 -1.0 0.0
   outer loop
      vertex 26.7965357448676 14.3130705814667 3.625
      vertex 28.6032514263839 14.3130705814667 2.375
      vertex 28.6032514263839 14.3130705814667 3.625
   endloop
endfacet
facet normal 0.0 0.0 1.0
   outer loop
      vertex 27.7847222469578 15.301257083557 0.875
      vertex 29.8908883127317 18.2005238334148 0.875
      vertex 27.7847222469578 21.1998840793765 0.875
   endloop
endfacet
facet normal 0.0 0.0 1.0
   outer loop
      vertex 29.8908883127317 18.2005238334148 0.875
      vertex 27.7847222469578 15.301257083557 0.875
      vertex 32.7458492427774 15.301257083557 0.875
   endloop
endfacet
facet normal 0.0 0.0 1.0
   outer loop
      vertex 27.7847222469578 21.1998840793765 0.875
      vertex 29.8908883127317 18.2005238334148 0.875
      vertex 29.8236726997004 18.3124128329648 0.875
   endloop
endfacet
facet normal 0.0 0.0 1.0
   outer loop
      vertex 27.7847222469578 21.1998840793765 0.875
      vertex 29.8236726997004 18.3124128329648 0.875
      vertex 29.7877064071645 18.4378859880885 0.875
   endloop
endfacet
facet normal 0.0 0.0 1.0
   outer loop
      vertex 27.7847222469578 21.1998840793765 0.875
      vertex 29.7877064071645 18.4378859880885 0.875
      vertex 29.7854404785234 18.5683925106184 0.875
   endloop
endfacet
facet normal 0.0 0.0 1.0
   outer loop
      vertex 29.8908883127317 18.2005238334148 0.875
      vertex 32.7458492427774 15.301257083557 0.875
      vertex 29.9847726133095 18.1098440398527 0.875
   endloop
endfacet
facet normal 0.0 0.0 1.0
   outer loop
      vertex 29.9847726133095 18.1098440398527 0.875
      vertex 32.7458492427774 15.301257083557 0.875
      vertex 30.0989275415006 18.046553130354 0.875
   endloop
endfacet
facet normal 0.0 0.0 1.0
   outer loop
      vertex 30.0989275415006 18.046553130354 0.875
      vertex 32.7458492427774 15.301257083557 0.875
      vertex 30.2255736275986 18.0149642758082 0.875
   endloop
endfacet
facet normal 0.0 0.0 1.0
   outer loop
      vertex 30.2255736275986 18.0149642758082 0.875
      vertex 32.7458492427774 15.301257083557 0.875
      vertex 30.3560801501285 18.0172302044493 0.875
   endloop
endfacet
facet normal 0.0 0.0 1.0
   outer loop
      vertex 30.3560801501285 18.0172302044493 0.875
      vertex 32.7458492427774 15.301257083557 0.875
      vertex 30.4815533052522 18.0531964969851 0.875
   endloop
endfacet
facet normal 0.0 0.0 1.0
   outer loop
      vertex 30.4815533052522 18.0531964969851 0.875
      vertex 32.7458492427774 15.301257083557 0.875
      vertex 30.5934423048022 18.1204121100165 0.875
   endloop
endfacet
facet normal 0.0 0.0 1.0
   outer loop
      vertex 30.5934423048022 18.1204121100165 0.875
      vertex 32.7458492427774 15.301257083557 0.875
      vertex 30.6841220983644 18.2142964105943 0.875
   endloop
endfacet
facet normal 0.0 0.0 1.0
   outer loop
      vertex 30.6841220983644 18.2142964105943 0.875
      vertex 32.7458492427774 15.301257083557 0.875
      vertex 30.747413007863 18.3284513387853 0.875
   endloop
endfacet
facet normal 0.0 0.0 1.0
   outer loop
      vertex 30.747413007863 18.3284513387853 0.875
      vertex 32.7458492427774 15.301257083557 0.875
      vertex 30.7790018624088 18.4550974248833 0.875
   endloop
endfacet
facet normal 0.0 0.0 1.0
   outer loop
      vertex 27.7847222469578 21.1998840793765 0.875
      vertex 29.9710000361301 18.9030778254853 0.875
      vertex 32.7458492427774 21.1998840793765 0.875
   endloop
endfacet
facet normal 0.0 0.0 1.0
   outer loop
      vertex 29.9710000361301 18.9030778254853 0.875
      vertex 27.7847222469578 21.1998840793765 0.875
      vertex 29.8803202425679 18.8091935249075 0.875
   endloop
endfacet
facet normal 0.0 0.0 1.0
   outer loop
      vertex 29.8803202425679 18.8091935249075 0.875
      vertex 27.7847222469578 21.1998840793765 0.875
      vertex 29.8170293330693 18.6950385967164 0.875
   endloop
endfacet
facet normal 0.0 0.0 1.0
   outer loop
      vertex 29.8170293330693 18.6950385967164 0.875
      vertex 27.7847222469578 21.1998840793765 0.875
      vertex 29.7854404785234 18.5683925106184 0.875
   endloop
endfacet
facet normal 0.0 0.0 1.0
   outer loop
      vertex 32.7458492427774 21.1998840793765 0.875
      vertex 29.9710000361301 18.9030778254853 0.875
      vertex 30.08288903568 18.9702934385166 0.875
   endloop
endfacet
facet normal 0.0 0.0 1.0
   outer loop
      vertex 32.7458492427774 21.1998840793765 0.875
      vertex 30.08288903568 18.9702934385166 0.875
      vertex 30.2083621908037 19.0062597310525 0.875
   endloop
endfacet
facet normal 0.0 0.0 1.0
   outer loop
      vertex 32.7458492427774 21.1998840793765 0.875
      vertex 30.2083621908037 19.0062597310525 0.875
      vertex 30.3388687133337 19.0085256596936 0.875
   endloop
endfacet
facet normal 0.0 0.0 1.0
   outer loop
      vertex 32.7458492427774 21.1998840793765 0.875
      vertex 30.3388687133337 19.0085256596936 0.875
      vertex 30.4655147994317 18.9769368051477 0.875
   endloop
endfacet
facet normal 0.0 0.0 1.0
   outer loop
      vertex 32.7458492427774 21.1998840793765 0.875
      vertex 30.4655147994317 18.9769368051477 0.875
      vertex 30.5796697276227 18.9136458956491 0.875
   endloop
endfacet
facet normal 0.0 0.0 1.0
   outer loop
      vertex 32.7458492427774 21.1998840793765 0.875
      vertex 30.5796697276227 18.9136458956491 0.875
      vertex 30.6735540282006 18.8229661020869 0.875
   endloop
endfacet
facet normal 0.0 0.0 1.0
   outer loop
      vertex 32.7458492427774 21.1998840793765 0.875
      vertex 30.6735540282006 18.8229661020869 0.875
      vertex 30.7407696412319 18.711077102537 0.875
   endloop
endfacet
facet normal 0.0 0.0 1.0
   outer loop
      vertex 32.7458492427774 21.1998840793765 0.875
      vertex 30.7407696412319 18.711077102537 0.875
      vertex 30.7767359337677 18.5856039474133 0.875
   endloop
endfacet
facet normal 0.0 0.0 1.0
   outer loop
      vertex 32.7458492427774 21.1998840793765 0.875
      vertex 30.7767359337677 18.5856039474133 0.875
      vertex 30.7790018624088 18.4550974248833 0.875
   endloop
endfacet
facet normal 0.0 0.0 1.0
   outer loop
      vertex 32.7458492427774 21.1998840793765 0.875
      vertex 30.7790018624088 18.4550974248833 0.875
      vertex 32.7458492427774 15.301257083557 0.875
   endloop
endfacet
facet normal -1.0 0.0 0.0
   outer loop
      vertex 32.7458492427774 21.1998840793765 3.625
      vertex 32.7458492427774 15.301257083557 0.875
      vertex 32.7458492427774 15.301257083557 3.625
   endloop
endfacet
facet normal -1.0 0.0 0.0
   outer loop
      vertex 32.7458492427774 15.301257083557 0.875
      vertex 32.7458492427774 21.1998840793765 3.625
      vertex 32.7458492427774 21.1998840793765 0.875
   endloop
endfacet
facet normal 0.0 1.0 -0.0
   outer loop
      vertex 27.7847222469578 15.301257083557 0.875
      vertex 28.6032514263839 15.301257083557 2.375
      vertex 32.7458492427774 15.301257083557 0.875
   endloop
endfacet
facet normal 0.0 1.0 -0.0
   outer loop
      vertex 28.6032514263839 15.301257083557 2.375
      vertex 27.7847222469578 15.301257083557 0.875
      vertex 27.7847222469578 15.301257083557 3.625
   endloop
endfacet
facet normal 0.0 1.0 -0.0
   outer loop
      vertex 28.6032514263839 15.301257083557 2.375
      vertex 27.7847222469578 15.301257083557 3.625
      vertex 28.6032514263839 15.301257083557 3.625
   endloop
endfacet
facet normal 0.0 1.0 -0.0
   outer loop
      vertex 29.4782514263839 15.301257083557 3.625
      vertex 31.2246531155015 15.301257083557 2.375
      vertex 29.4782514263839 15.301257083557 2.375
   endloop
endfacet
facet normal 0.0 1.0 -0.0
   outer loop
      vertex 31.2246531155015 15.301257083557 2.375
      vertex 29.4782514263839 15.301257083557 3.625
      vertex 31.2246531155015 15.301257083557 3.625
   endloop
endfacet
facet normal 0.0 1.0 -0.0
   outer loop
      vertex 32.7458492427774 15.301257083557 0.875
      vertex 32.1621531155015 15.301257083557 2.375
      vertex 32.7458492427774 15.301257083557 3.625
   endloop
endfacet
facet normal 0.0 1.0 -0.0
   outer loop
      vertex 32.1621531155015 15.301257083557 2.375
      vertex 32.7458492427774 15.301257083557 0.875
      vertex 28.6032514263839 15.301257083557 2.375
   endloop
endfacet
facet normal 0.0 1.0 -0.0
   outer loop
      vertex 32.1621531155015 15.301257083557 2.375
      vertex 28.6032514263839 15.301257083557 2.375
      vertex 29.4782514263839 15.301257083557 2.375
   endloop
endfacet
facet normal 0.0 1.0 -0.0
   outer loop
      vertex 32.1621531155015 15.301257083557 2.375
      vertex 29.4782514263839 15.301257083557 2.375
      vertex 31.2246531155015 15.301257083557 2.375
   endloop
endfacet
facet normal 0.0 1.0 -0.0
   outer loop
      vertex 32.7458492427774 15.301257083557 3.625
      vertex 32.1621531155015 15.301257083557 2.375
      vertex 32.1621531155015 15.301257083557 3.625
   endloop
endfacet
facet normal 1.0 0.0 0.0
   outer loop
      vertex 27.7847222469578 21.1998840793765 0.875
      vertex 27.7847222469578 15.301257083557 3.625
      vertex 27.7847222469578 15.301257083557 0.875
   endloop
endfacet
facet normal 1.0 0.0 0.0
   outer loop
      vertex 27.7847222469578 15.301257083557 3.625
      vertex 27.7847222469578 21.1998840793765 0.875
      vertex 27.7847222469578 21.1998840793765 3.625
   endloop
endfacet
facet normal 0.0 -1.0 0.0
   outer loop
      vertex 32.7458492427774 21.1998840793765 3.625
      vertex 27.7847222469578 21.1998840793765 0.875
      vertex 32.7458492427774 21.1998840793765 0.875
   endloop
endfacet
facet normal 0.0 -1.0 0.0
   outer loop
      vertex 27.7847222469578 21.1998840793765 0.875
      vertex 32.7458492427774 21.1998840793765 3.625
      vertex 30.929460822229 21.1998840793765 2.64060794567815
   endloop
endfacet
facet normal 0.0 -1.0 0.0
   outer loop
      vertex 27.7847222469578 21.1998840793765 0.875
      vertex 30.929460822229 21.1998840793765 2.64060794567815
      vertex 30.6520501937624 21.1998840793765 2.5022491322332
   endloop
endfacet
facet normal 0.0 -1.0 0.0
   outer loop
      vertex 27.7847222469578 21.1998840793765 0.875
      vertex 30.6520501937624 21.1998840793765 2.5022491322332
      vertex 30.3482822072621 21.1998840793765 2.44040393499303
   endloop
endfacet
facet normal 0.0 -1.0 0.0
   outer loop
      vertex 30.929460822229 21.1998840793765 2.64060794567815
      vertex 32.7458492427774 21.1998840793765 3.625
      vertex 31.1616090167746 21.1998840793765 2.84605145084034
   endloop
endfacet
facet normal 0.0 -1.0 0.0
   outer loop
      vertex 31.1616090167746 21.1998840793765 2.84605145084034
      vertex 32.7458492427774 21.1998840793765 3.625
      vertex 31.332674261584 21.1998840793765 3.10457901235442
   endloop
endfacet
facet normal 0.0 -1.0 0.0
   outer loop
      vertex 31.332674261584 21.1998840793765 3.10457901235442
      vertex 32.7458492427774 21.1998840793765 3.625
      vertex 31.4309987429221 21.1998840793765 3.3985724041402
   endloop
endfacet
facet normal 0.0 -1.0 0.0
   outer loop
      vertex 31.4309987429221 21.1998840793765 3.3985724041402
      vertex 32.7458492427774 21.1998840793765 3.625
      vertex 31.444816826353 21.1998840793765 3.625
   endloop
endfacet
facet normal 0.0 -1.0 0.0
   outer loop
      vertex 27.7847222469578 21.1998840793765 0.875
      vertex 29.744864757222 21.1998840793765 2.55761148328362
      vertex 27.7847222469578 21.1998840793765 3.625
   endloop
endfacet
facet normal 0.0 -1.0 0.0
   outer loop
      vertex 29.744864757222 21.1998840793765 2.55761148328362
      vertex 27.7847222469578 21.1998840793765 0.875
      vertex 30.0388581490078 21.1998840793765 2.45928700194553
   endloop
endfacet
facet normal 0.0 -1.0 0.0
   outer loop
      vertex 30.0388581490078 21.1998840793765 2.45928700194553
      vertex 27.7847222469578 21.1998840793765 0.875
      vertex 30.3482822072621 21.1998840793765 2.44040393499303
   endloop
endfacet
facet normal 0.0 -1.0 0.0
   outer loop
      vertex 27.7847222469578 21.1998840793765 3.625
      vertex 29.744864757222 21.1998840793765 2.55761148328362
      vertex 29.4863371957079 21.1998840793765 2.72867672809301
   endloop
endfacet
facet normal 0.0 -1.0 0.0
   outer loop
      vertex 27.7847222469578 21.1998840793765 3.625
      vertex 29.4863371957079 21.1998840793765 2.72867672809301
      vertex 29.2808936905457 21.1998840793765 2.96082492263861
   endloop
endfacet
facet normal 0.0 -1.0 0.0
   outer loop
      vertex 27.7847222469578 21.1998840793765 3.625
      vertex 29.2808936905457 21.1998840793765 2.96082492263861
      vertex 29.1425348771008 21.1998840793765 3.23823555110519
   endloop
endfacet
facet normal 0.0 -1.0 0.0
   outer loop
      vertex 27.7847222469578 21.1998840793765 3.625
      vertex 29.1425348771008 21.1998840793765 3.23823555110519
      vertex 29.0806896798606 21.1998840793765 3.54200353760547
   endloop
endfacet
facet normal 0.0 -1.0 0.0
   outer loop
      vertex 27.7847222469578 21.1998840793765 3.625
      vertex 29.0806896798606 21.1998840793765 3.54200353760547
      vertex 29.0857546633821 21.1998840793765 3.625
   endloop
endfacet
facet normal -0.0 -0.0 1.0
   outer loop
      vertex 31.2246531155015 14.3130705814667 3.625
      vertex 29.4782514263839 15.301257083557 3.625
      vertex 29.4782514263839 14.3130705814667 3.625
   endloop
endfacet
facet normal -0.0 -0.0 1.0
   outer loop
      vertex 29.4782514263839 15.301257083557 3.625
      vertex 31.2246531155015 14.3130705814667 3.625
      vertex 31.2246531155015 15.301257083557 3.625
   endloop
endfacet
facet normal -0.0 -0.0 1.0
   outer loop
      vertex 33.7340357448676 14.3130705814667 3.625
      vertex 32.1621531155015 15.301257083557 3.625
      vertex 32.1621531155015 14.3130705814667 3.625
   endloop
endfacet
facet normal -0.0 -0.0 1.0
   outer loop
      vertex 32.1621531155015 15.301257083557 3.625
      vertex 33.7340357448676 14.3130705814667 3.625
      vertex 32.7458492427774 15.301257083557 3.625
   endloop
endfacet
facet normal -0.0 -0.0 1.0
   outer loop
      vertex 32.7458492427774 15.301257083557 3.625
      vertex 33.7340357448676 14.3130705814667 3.625
      vertex 32.7458492427774 21.1998840793765 3.625
   endloop
endfacet
facet normal -0.0 -0.0 1.0
   outer loop
      vertex 32.7458492427774 21.1998840793765 3.625
      vertex 31.444816826353 22.1880705814667 3.625
      vertex 31.444816826353 21.1998840793765 3.625
   endloop
endfacet
facet normal -0.0 -0.0 1.0
   outer loop
      vertex 31.444816826353 22.1880705814667 3.625
      vertex 32.7458492427774 21.1998840793765 3.625
      vertex 33.7340357448676 22.1880705814667 3.625
   endloop
endfacet
facet normal -0.0 -0.0 1.0
   outer loop
      vertex 33.7340357448676 22.1880705814667 3.625
      vertex 32.7458492427774 21.1998840793765 3.625
      vertex 33.7340357448676 14.3130705814667 3.625
   endloop
endfacet
facet normal -0.0 -0.0 1.0
   outer loop
      vertex 29.4782514263839 14.3130705814667 2.375
      vertex 28.6032514263839 15.301257083557 2.375
      vertex 28.6032514263839 14.3130705814667 2.375
   endloop
endfacet
facet normal -0.0 -0.0 1.0
   outer loop
      vertex 28.6032514263839 15.301257083557 2.375
      vertex 29.4782514263839 14.3130705814667 2.375
      vertex 29.4782514263839 15.301257083557 2.375
   endloop
endfacet
facet normal -1.0 0.0 0.0
   outer loop
      vertex 29.4782514263839 15.301257083557 3.625
      vertex 29.4782514263839 14.3130705814667 2.375
      vertex 29.4782514263839 14.3130705814667 3.625
   endloop
endfacet
facet normal -1.0 0.0 0.0
   outer loop
      vertex 29.4782514263839 14.3130705814667 2.375
      vertex 29.4782514263839 15.301257083557 3.625
      vertex 29.4782514263839 15.301257083557 2.375
   endloop
endfacet
facet normal 1.0 -0.0 -0.0
   outer loop
      vertex 28.6032514263839 15.301257083557 2.375
      vertex 28.6032514263839 14.3130705814667 3.625
      vertex 28.6032514263839 14.3130705814667 2.375
   endloop
endfacet
facet normal 1.0 -0.0 -0.0
   outer loop
      vertex 28.6032514263839 14.3130705814667 3.625
      vertex 28.6032514263839 15.301257083557 2.375
      vertex 28.6032514263839 15.301257083557 3.625
   endloop
endfacet
facet normal -0.0 -0.0 1.0
   outer loop
      vertex 32.1621531155015 14.3130705814667 2.375
      vertex 31.2246531155015 15.301257083557 2.375
      vertex 31.2246531155015 14.3130705814667 2.375
   endloop
endfacet
facet normal -0.0 -0.0 1.0
   outer loop
      vertex 31.2246531155015 15.301257083557 2.375
      vertex 32.1621531155015 14.3130705814667 2.375
      vertex 32.1621531155015 15.301257083557 2.375
   endloop
endfacet
facet normal -1.0 0.0 0.0
   outer loop
      vertex 32.1621531155015 15.301257083557 3.625
      vertex 32.1621531155015 14.3130705814667 2.375
      vertex 32.1621531155015 14.3130705814667 3.625
   endloop
endfacet
facet normal -1.0 0.0 0.0
   outer loop
      vertex 32.1621531155015 14.3130705814667 2.375
      vertex 32.1621531155015 15.301257083557 3.625
      vertex 32.1621531155015 15.301257083557 2.375
   endloop
endfacet
facet normal 1.0 -0.0 -0.0
   outer loop
      vertex 31.2246531155015 15.301257083557 2.375
      vertex 31.2246531155015 14.3130705814667 3.625
      vertex 31.2246531155015 14.3130705814667 2.375
   endloop
endfacet
facet normal 1.0 -0.0 -0.0
   outer loop
      vertex 31.2246531155015 14.3130705814667 3.625
      vertex 31.2246531155015 15.301257083557 2.375
      vertex 31.2246531155015 15.301257083557 3.625
   endloop
endfacet
facet normal -0.0 -0.0 1.0
   outer loop
      vertex 26.7965357448676 14.3130705814667 3.625
      vertex 27.7847222469578 15.301257083557 3.625
      vertex 26.7965357448676 22.1880705814667 3.625
   endloop
endfacet
facet normal -0.0 -0.0 1.0
   outer loop
      vertex 27.7847222469578 15.301257083557 3.625
      vertex 26.7965357448676 14.3130705814667 3.625
      vertex 28.6032514263839 14.3130705814667 3.625
   endloop
endfacet
facet normal -0.0 -0.0 1.0
   outer loop
      vertex 27.7847222469578 15.301257083557 3.625
      vertex 28.6032514263839 14.3130705814667 3.625
      vertex 28.6032514263839 15.301257083557 3.625
   endloop
endfacet
facet normal -0.0 -0.0 1.0
   outer loop
      vertex 26.7965357448676 22.1880705814667 3.625
      vertex 27.7847222469578 21.1998840793765 3.625
      vertex 29.0857546633821 22.1880705814667 3.625
   endloop
endfacet
facet normal -0.0 -0.0 1.0
   outer loop
      vertex 27.7847222469578 21.1998840793765 3.625
      vertex 26.7965357448676 22.1880705814667 3.625
      vertex 27.7847222469578 15.301257083557 3.625
   endloop
endfacet
facet normal -0.0 -0.0 1.0
   outer loop
      vertex 29.0857546633821 22.1880705814667 3.625
      vertex 27.7847222469578 21.1998840793765 3.625
      vertex 29.0857546633821 21.1998840793765 3.625
   endloop
endfacet
facet normal 0.998143068344327 -0.0 -0.0609131768681703
   outer loop
      vertex 29.0806896798606 22.1880705814667 3.54200353760547
      vertex 29.0857546633821 21.1998840793765 3.625
      vertex 29.0806896798606 21.1998840793765 3.54200353760547
   endloop
endfacet
facet normal 0.998143068344327 -0.0 -0.0609131768681703
   outer loop
      vertex 29.0857546633821 21.1998840793765 3.625
      vertex 29.0806896798606 22.1880705814667 3.54200353760547
      vertex 29.0857546633821 22.1880705814667 3.625
   endloop
endfacet
facet normal -0.998143068344326 -2.58027130206326e-29 0.0609131768681731
   outer loop
      vertex 31.444816826353 22.1880705814667 3.625
      vertex 31.4309987429221 21.1998840793765 3.3985724041402
      vertex 31.444816826353 21.1998840793765 3.625
   endloop
endfacet
facet normal -0.998143068344326 -2.58027130206326e-29 0.0609131768681731
   outer loop
      vertex 31.4309987429221 21.1998840793765 3.3985724041402
      vertex 31.444816826353 22.1880705814667 3.625
      vertex 31.4309987429221 22.1880705814667 3.3985724041402
   endloop
endfacet
facet normal -0.948366677774018 -0.0 0.317176046522861
   outer loop
      vertex 31.4309987429221 22.1880705814667 3.3985724041402
      vertex 31.332674261584 21.1998840793765 3.10457901235442
      vertex 31.4309987429221 21.1998840793765 3.3985724041402
   endloop
endfacet
facet normal -0.948366677774018 -0.0 0.317176046522861
   outer loop
      vertex 31.332674261584 21.1998840793765 3.10457901235442
      vertex 31.4309987429221 22.1880705814667 3.3985724041402
      vertex 31.332674261584 22.1880705814667 3.10457901235442
   endloop
endfacet
facet normal -0.833960665363448 -0.0 0.551823892765214
   outer loop
      vertex 31.332674261584 22.1880705814667 3.10457901235442
      vertex 31.1616090167746 21.1998840793765 2.84605145084034
      vertex 31.332674261584 21.1998840793765 3.10457901235442
   endloop
endfacet
facet normal -0.833960665363448 -0.0 0.551823892765214
   outer loop
      vertex 31.1616090167746 21.1998840793765 2.84605145084034
      vertex 31.332674261584 22.1880705814667 3.10457901235442
      vertex 31.1616090167746 22.1880705814667 2.84605145084034
   endloop
endfacet
facet normal -0.662721611793518 -0.0 0.748865852647724
   outer loop
      vertex 31.1616090167746 21.1998840793765 2.84605145084034
      vertex 30.929460822229 22.1880705814667 2.64060794567815
      vertex 30.929460822229 21.1998840793765 2.64060794567815
   endloop
endfacet
facet normal -0.662721611793518 -0.0 0.748865852647724
   outer loop
      vertex 30.929460822229 22.1880705814667 2.64060794567815
      vertex 31.1616090167746 21.1998840793765 2.84605145084034
      vertex 31.1616090167746 22.1880705814667 2.84605145084034
   endloop
endfacet
facet normal -0.446319175579111 -0.0 0.89487384223162
   outer loop
      vertex 30.929460822229 21.1998840793765 2.64060794567815
      vertex 30.6520501937624 22.1880705814667 2.5022491322332
      vertex 30.6520501937624 21.1998840793765 2.5022491322332
   endloop
endfacet
facet normal -0.446319175579111 -0.0 0.89487384223162
   outer loop
      vertex 30.6520501937624 22.1880705814667 2.5022491322332
      vertex 30.929460822229 21.1998840793765 2.64060794567815
      vertex 30.929460822229 22.1880705814667 2.64060794567815
   endloop
endfacet
facet normal -0.199500825126297 -0.0 0.979897658316381
   outer loop
      vertex 30.6520501937624 21.1998840793765 2.5022491322332
      vertex 30.3482822072621 22.1880705814667 2.44040393499303
      vertex 30.3482822072621 21.1998840793765 2.44040393499303
   endloop
endfacet
facet normal -0.199500825126297 -0.0 0.979897658316381
   outer loop
      vertex 30.3482822072621 22.1880705814667 2.44040393499303
      vertex 30.6520501937624 21.1998840793765 2.5022491322332
      vertex 30.6520501937624 22.1880705814667 2.5022491322332
   endloop
endfacet
facet normal 0.0609131768681733 0.0 0.998143068344326
   outer loop
      vertex 30.3482822072621 21.1998840793765 2.44040393499303
      vertex 30.0388581490078 22.1880705814667 2.45928700194553
      vertex 30.0388581490078 21.1998840793765 2.45928700194553
   endloop
endfacet
facet normal 0.0609131768681733 0.0 0.998143068344326
   outer loop
      vertex 30.0388581490078 22.1880705814667 2.45928700194553
      vertex 30.3482822072621 21.1998840793765 2.44040393499303
      vertex 30.3482822072621 22.1880705814667 2.44040393499303
   endloop
endfacet
facet normal 0.317176046522862 0.0 0.948366677774018
   outer loop
      vertex 30.0388581490078 21.1998840793765 2.45928700194553
      vertex 29.744864757222 22.1880705814667 2.55761148328362
      vertex 29.744864757222 21.1998840793765 2.55761148328362
   endloop
endfacet
facet normal 0.317176046522862 0.0 0.948366677774018
   outer loop
      vertex 29.744864757222 22.1880705814667 2.55761148328362
      vertex 30.0388581490078 21.1998840793765 2.45928700194553
      vertex 30.0388581490078 22.1880705814667 2.45928700194553
   endloop
endfacet
facet normal 0.551823892765214 0.0 0.833960665363449
   outer loop
      vertex 29.744864757222 21.1998840793765 2.55761148328362
      vertex 29.4863371957079 22.1880705814667 2.72867672809301
      vertex 29.4863371957079 21.1998840793765 2.72867672809301
   endloop
endfacet
facet normal 0.551823892765214 0.0 0.833960665363449
   outer loop
      vertex 29.4863371957079 22.1880705814667 2.72867672809301
      vertex 29.744864757222 21.1998840793765 2.55761148328362
      vertex 29.744864757222 22.1880705814667 2.55761148328362
   endloop
endfacet
facet normal 0.748865852647723 0.0 0.662721611793518
   outer loop
      vertex 29.4863371957079 22.1880705814667 2.72867672809301
      vertex 29.2808936905457 21.1998840793765 2.96082492263861
      vertex 29.4863371957079 21.1998840793765 2.72867672809301
   endloop
endfacet
facet normal 0.748865852647723 0.0 0.662721611793518
   outer loop
      vertex 29.2808936905457 21.1998840793765 2.96082492263861
      vertex 29.4863371957079 22.1880705814667 2.72867672809301
      vertex 29.2808936905457 22.1880705814667 2.96082492263861
   endloop
endfacet
facet normal 0.894873842231622 0.0 0.446319175579108
   outer loop
      vertex 29.2808936905457 22.1880705814667 2.96082492263861
      vertex 29.1425348771008 21.1998840793765 3.23823555110519
      vertex 29.2808936905457 21.1998840793765 2.96082492263861
   endloop
endfacet
facet normal 0.894873842231622 0.0 0.446319175579108
   outer loop
      vertex 29.1425348771008 21.1998840793765 3.23823555110519
      vertex 29.2808936905457 22.1880705814667 2.96082492263861
      vertex 29.1425348771008 22.1880705814667 3.23823555110519
   endloop
endfacet
facet normal 0.979897658316383 0.0 0.199500825126289
   outer loop
      vertex 29.1425348771008 22.1880705814667 3.23823555110519
      vertex 29.0806896798606 21.1998840793765 3.54200353760547
      vertex 29.1425348771008 21.1998840793765 3.23823555110519
   endloop
endfacet
facet normal 0.979897658316383 0.0 0.199500825126289
   outer loop
      vertex 29.0806896798606 21.1998840793765 3.54200353760547
      vertex 29.1425348771008 22.1880705814667 3.23823555110519
      vertex 29.0806896798606 22.1880705814667 3.54200353760547
   endloop
endfacet
facet normal 0.0 0.0 -1.0
   outer loop
      vertex 26.7965357448676 22.1880705814667 0.0
      vertex 29.8803202425679 18.8091935249075 0.0
      vertex 26.7965357448676 14.3130705814667 0.0
   endloop
endfacet
facet normal 0.0 0.0 -1.0
   outer loop
      vertex 29.8803202425679 18.8091935249075 0.0
      vertex 26.7965357448676 22.1880705814667 0.0
      vertex 29.9710000361301 18.9030778254853 0.0
   endloop
endfacet
facet normal 0.0 0.0 -1.0
   outer loop
      vertex 29.9710000361301 18.9030778254853 0.0
      vertex 26.7965357448676 22.1880705814667 0.0
      vertex 33.7340357448676 22.1880705814667 0.0
   endloop
endfacet
facet normal 0.0 0.0 -1.0
   outer loop
      vertex 26.7965357448676 14.3130705814667 0.0
      vertex 29.8803202425679 18.8091935249075 0.0
      vertex 29.8170293330693 18.6950385967164 0.0
   endloop
endfacet
facet normal 0.0 0.0 -1.0
   outer loop
      vertex 26.7965357448676 14.3130705814667 0.0
      vertex 29.8170293330693 18.6950385967164 0.0
      vertex 29.7854404785234 18.5683925106184 0.0
   endloop
endfacet
facet normal 0.0 0.0 -1.0
   outer loop
      vertex 29.9710000361301 18.9030778254853 0.0
      vertex 33.7340357448676 22.1880705814667 0.0
      vertex 30.08288903568 18.9702934385166 0.0
   endloop
endfacet
facet normal 0.0 0.0 -1.0
   outer loop
      vertex 30.08288903568 18.9702934385166 0.0
      vertex 33.7340357448676 22.1880705814667 0.0
      vertex 30.2083621908037 19.0062597310525 0.0
   endloop
endfacet
facet normal 0.0 0.0 -1.0
   outer loop
      vertex 30.2083621908037 19.0062597310525 0.0
      vertex 33.7340357448676 22.1880705814667 0.0
      vertex 30.3388687133337 19.0085256596936 0.0
   endloop
endfacet
facet normal 0.0 0.0 -1.0
   outer loop
      vertex 30.3388687133337 19.0085256596936 0.0
      vertex 33.7340357448676 22.1880705814667 0.0
      vertex 30.4655147994317 18.9769368051477 0.0
   endloop
endfacet
facet normal 0.0 0.0 -1.0
   outer loop
      vertex 30.4655147994317 18.9769368051477 0.0
      vertex 33.7340357448676 22.1880705814667 0.0
      vertex 30.5796697276227 18.9136458956491 0.0
   endloop
endfacet
facet normal 0.0 0.0 -1.0
   outer loop
      vertex 30.5796697276227 18.9136458956491 0.0
      vertex 33.7340357448676 22.1880705814667 0.0
      vertex 30.6735540282006 18.8229661020869 0.0
   endloop
endfacet
facet normal 0.0 0.0 -1.0
   outer loop
      vertex 30.6735540282006 18.8229661020869 0.0
      vertex 33.7340357448676 22.1880705814667 0.0
      vertex 30.7407696412319 18.711077102537 0.0
   endloop
endfacet
facet normal 0.0 0.0 -1.0
   outer loop
      vertex 30.7407696412319 18.711077102537 0.0
      vertex 33.7340357448676 22.1880705814667 0.0
      vertex 30.7767359337677 18.5856039474133 0.0
   endloop
endfacet
facet normal 0.0 0.0 -1.0
   outer loop
      vertex 30.7767359337677 18.5856039474133 0.0
      vertex 33.7340357448676 22.1880705814667 0.0
      vertex 30.7790018624088 18.4550974248833 0.0
   endloop
endfacet
facet normal 0.0 0.0 -1.0
   outer loop
      vertex 26.7965357448676 14.3130705814667 0.0
      vertex 29.8908883127317 18.2005238334148 0.0
      vertex 33.7340357448676 14.3130705814667 0.0
   endloop
endfacet
facet normal 0.0 0.0 -1.0
   outer loop
      vertex 29.8908883127317 18.2005238334148 0.0
      vertex 26.7965357448676 14.3130705814667 0.0
      vertex 29.8236726997004 18.3124128329648 0.0
   endloop
endfacet
facet normal 0.0 0.0 -1.0
   outer loop
      vertex 29.8236726997004 18.3124128329648 0.0
      vertex 26.7965357448676 14.3130705814667 0.0
      vertex 29.7877064071645 18.4378859880885 0.0
   endloop
endfacet
facet normal 0.0 0.0 -1.0
   outer loop
      vertex 29.7877064071645 18.4378859880885 0.0
      vertex 26.7965357448676 14.3130705814667 0.0
      vertex 29.7854404785234 18.5683925106184 0.0
   endloop
endfacet
facet normal 0.0 0.0 -1.0
   outer loop
      vertex 33.7340357448676 14.3130705814667 0.0
      vertex 29.8908883127317 18.2005238334148 0.0
      vertex 29.9847726133095 18.1098440398527 0.0
   endloop
endfacet
facet normal 0.0 0.0 -1.0
   outer loop
      vertex 33.7340357448676 14.3130705814667 0.0
      vertex 29.9847726133095 18.1098440398527 0.0
      vertex 30.0989275415006 18.046553130354 0.0
   endloop
endfacet
facet normal 0.0 0.0 -1.0
   outer loop
      vertex 33.7340357448676 14.3130705814667 0.0
      vertex 30.0989275415006 18.046553130354 0.0
      vertex 30.2255736275986 18.0149642758082 0.0
   endloop
endfacet
facet normal 0.0 0.0 -1.0
   outer loop
      vertex 33.7340357448676 14.3130705814667 0.0
      vertex 30.2255736275986 18.0149642758082 0.0
      vertex 30.3560801501285 18.0172302044493 0.0
   endloop
endfacet
facet normal 0.0 0.0 -1.0
   outer loop
      vertex 33.7340357448676 14.3130705814667 0.0
      vertex 30.3560801501285 18.0172302044493 0.0
      vertex 30.4815533052522 18.0531964969851 0.0
   endloop
endfacet
facet normal 0.0 0.0 -1.0
   outer loop
      vertex 33.7340357448676 14.3130705814667 0.0
      vertex 30.4815533052522 18.0531964969851 0.0
      vertex 30.5934423048022 18.1204121100165 0.0
   endloop
endfacet
facet normal 0.0 0.0 -1.0
   outer loop
      vertex 33.7340357448676 14.3130705814667 0.0
      vertex 30.5934423048022 18.1204121100165 0.0
      vertex 30.6841220983644 18.2142964105943 0.0
   endloop
endfacet
facet normal 0.0 0.0 -1.0
   outer loop
      vertex 33.7340357448676 14.3130705814667 0.0
      vertex 30.6841220983644 18.2142964105943 0.0
      vertex 30.747413007863 18.3284513387853 0.0
   endloop
endfacet
facet normal 0.0 0.0 -1.0
   outer loop
      vertex 33.7340357448676 14.3130705814667 0.0
      vertex 30.747413007863 18.3284513387853 0.0
      vertex 30.7790018624088 18.4550974248833 0.0
   endloop
endfacet
facet normal 0.0 0.0 -1.0
   outer loop
      vertex 33.7340357448676 14.3130705814667 0.0
      vertex 30.7790018624088 18.4550974248833 0.0
      vertex 33.7340357448676 22.1880705814667 0.0
   endloop
endfacet
facet normal 0.27554846980595 -0.961287179144505 -0.0
   outer loop
      vertex 30.2083621908037 19.0062597310525 0.875
      vertex 30.08288903568 18.9702934385166 0.0
      vertex 30.2083621908037 19.0062597310525 0.0
   endloop
endfacet
facet normal 0.27554846980595 -0.961287179144505 -0.0
   outer loop
      vertex 30.08288903568 18.9702934385166 0.0
      vertex 30.2083621908037 19.0062597310525 0.875
      vertex 30.08288903568 18.9702934385166 0.875
   endloop
endfacet
facet normal 0.514958813155444 -0.857214920981627 -0.0
   outer loop
      vertex 30.08288903568 18.9702934385166 0.875
      vertex 29.9710000361301 18.9030778254853 0.0
      vertex 30.08288903568 18.9702934385166 0.0
   endloop
endfacet
facet normal 0.514958813155444 -0.857214920981627 -0.0
   outer loop
      vertex 29.9710000361301 18.9030778254853 0.0
      vertex 30.08288903568 18.9702934385166 0.875
      vertex 29.9710000361301 18.9030778254853 0.875
   endloop
endfacet
facet normal 0.719275564398122 -0.694724882568462 -0.0
   outer loop
      vertex 29.9710000361301 18.9030778254853 0.0
      vertex 29.8803202425679 18.8091935249075 0.875
      vertex 29.8803202425679 18.8091935249075 0.0
   endloop
endfacet
facet normal 0.719275564398122 -0.694724882568462 -0.0
   outer loop
      vertex 29.8803202425679 18.8091935249075 0.875
      vertex 29.9710000361301 18.9030778254853 0.0
      vertex 29.9710000361301 18.9030778254853 0.875
   endloop
endfacet
facet normal 0.874574874586109 -0.484890491495442 -0.0
   outer loop
      vertex 29.8803202425679 18.8091935249075 0.0
      vertex 29.8170293330693 18.6950385967164 0.875
      vertex 29.8170293330693 18.6950385967164 0.0
   endloop
endfacet
facet normal 0.874574874586109 -0.484890491495442 -0.0
   outer loop
      vertex 29.8170293330693 18.6950385967164 0.875
      vertex 29.8803202425679 18.8091935249075 0.0
      vertex 29.8803202425679 18.8091935249075 0.875
   endloop
endfacet
facet normal 0.970273352374393 -0.242011614746392 -0.0
   outer loop
      vertex 29.8170293330693 18.6950385967164 0.0
      vertex 29.7854404785234 18.5683925106184 0.875
      vertex 29.7854404785234 18.5683925106184 0.0
   endloop
endfacet
facet normal 0.970273352374393 -0.242011614746392 -0.0
   outer loop
      vertex 29.7854404785234 18.5683925106184 0.875
      vertex 29.8170293330693 18.6950385967164 0.0
      vertex 29.8170293330693 18.6950385967164 0.875
   endloop
endfacet
facet normal 0.999849304650881 0.0173599536044988 0.0
   outer loop
      vertex 29.7854404785234 18.5683925106184 0.0
      vertex 29.7877064071645 18.4378859880885 0.875
      vertex 29.7877064071645 18.4378859880885 0.0
   endloop
endfacet
facet normal 0.999849304650881 0.0173599536044988 0.0
   outer loop
      vertex 29.7877064071645 18.4378859880885 0.875
      vertex 29.7854404785234 18.5683925106184 0.0
      vertex 29.7854404785234 18.5683925106184 0.875
   endloop
endfacet
facet normal 0.961287179144505 0.27554846980595 0.0
   outer loop
      vertex 29.7877064071645 18.4378859880885 0.0
      vertex 29.8236726997004 18.3124128329648 0.875
      vertex 29.8236726997004 18.3124128329648 0.0
   endloop
endfacet
facet normal 0.961287179144505 0.27554846980595 0.0
   outer loop
      vertex 29.8236726997004 18.3124128329648 0.875
      vertex 29.7877064071645 18.4378859880885 0.0
      vertex 29.7877064071645 18.4378859880885 0.875
   endloop
endfacet
facet normal 0.857214920981627 0.514958813155444 0.0
   outer loop
      vertex 29.8236726997004 18.3124128329648 0.0
      vertex 29.8908883127317 18.2005238334148 0.875
      vertex 29.8908883127317 18.2005238334148 0.0
   endloop
endfacet
facet normal 0.857214920981627 0.514958813155444 0.0
   outer loop
      vertex 29.8908883127317 18.2005238334148 0.875
      vertex 29.8236726997004 18.3124128329648 0.0
      vertex 29.8236726997004 18.3124128329648 0.875
   endloop
endfacet
facet normal 0.694724882568462 0.719275564398122 0.0
   outer loop
      vertex 29.8908883127317 18.2005238334148 0.875
      vertex 29.9847726133095 18.1098440398527 0.0
      vertex 29.8908883127317 18.2005238334148 0.0
   endloop
endfacet
facet normal 0.694724882568462 0.719275564398122 0.0
   outer loop
      vertex 29.9847726133095 18.1098440398527 0.0
      vertex 29.8908883127317 18.2005238334148 0.875
      vertex 29.9847726133095 18.1098440398527 0.875
   endloop
endfacet
facet normal 0.484890491495442 0.874574874586109 0.0
   outer loop
      vertex 29.9847726133095 18.1098440398527 0.875
      vertex 30.0989275415006 18.046553130354 0.0
      vertex 29.9847726133095 18.1098440398527 0.0
   endloop
endfacet
facet normal 0.484890491495442 0.874574874586109 0.0
   outer loop
      vertex 30.0989275415006 18.046553130354 0.0
      vertex 29.9847726133095 18.1098440398527 0.875
      vertex 30.0989275415006 18.046553130354 0.875
   endloop
endfacet
facet normal 0.242011614746392 0.970273352374393 0.0
   outer loop
      vertex 30.0989275415006 18.046553130354 0.875
      vertex 30.2255736275986 18.0149642758082 0.0
      vertex 30.0989275415006 18.046553130354 0.0
   endloop
endfacet
facet normal 0.242011614746392 0.970273352374393 0.0
   outer loop
      vertex 30.2255736275986 18.0149642758082 0.0
      vertex 30.0989275415006 18.046553130354 0.875
      vertex 30.2255736275986 18.0149642758082 0.875
   endloop
endfacet
facet normal -0.0173599536044988 0.999849304650881 -0.0
   outer loop
      vertex 30.2255736275986 18.0149642758082 0.875
      vertex 30.3560801501285 18.0172302044493 0.0
      vertex 30.2255736275986 18.0149642758082 0.0
   endloop
endfacet
facet normal -0.0173599536044988 0.999849304650881 -0.0
   outer loop
      vertex 30.3560801501285 18.0172302044493 0.0
      vertex 30.2255736275986 18.0149642758082 0.875
      vertex 30.3560801501285 18.0172302044493 0.875
   endloop
endfacet
facet normal -0.27554846980595 0.961287179144505 -0.0
   outer loop
      vertex 30.3560801501285 18.0172302044493 0.875
      vertex 30.4815533052522 18.0531964969851 0.0
      vertex 30.3560801501285 18.0172302044493 0.0
   endloop
endfacet
facet normal -0.27554846980595 0.961287179144505 -0.0
   outer loop
      vertex 30.4815533052522 18.0531964969851 0.0
      vertex 30.3560801501285 18.0172302044493 0.875
      vertex 30.4815533052522 18.0531964969851 0.875
   endloop
endfacet
facet normal -0.514958813155444 0.857214920981627 -0.0
   outer loop
      vertex 30.4815533052522 18.0531964969851 0.875
      vertex 30.5934423048022 18.1204121100165 0.0
      vertex 30.4815533052522 18.0531964969851 0.0
   endloop
endfacet
facet normal -0.514958813155444 0.857214920981627 -0.0
   outer loop
      vertex 30.5934423048022 18.1204121100165 0.0
      vertex 30.4815533052522 18.0531964969851 0.875
      vertex 30.5934423048022 18.1204121100165 0.875
   endloop
endfacet
facet normal -0.719275564398122 0.694724882568462 -0.0
   outer loop
      vertex 30.6841220983644 18.2142964105943 0.875
      vertex 30.5934423048022 18.1204121100165 0.0
      vertex 30.5934423048022 18.1204121100165 0.875
   endloop
endfacet
facet normal -0.719275564398122 0.694724882568462 -0.0
   outer loop
      vertex 30.5934423048022 18.1204121100165 0.0
      vertex 30.6841220983644 18.2142964105943 0.875
      vertex 30.6841220983644 18.2142964105943 0.0
   endloop
endfacet
facet normal -0.874574874586109 0.484890491495442 -0.0
   outer loop
      vertex 30.747413007863 18.3284513387853 0.875
      vertex 30.6841220983644 18.2142964105943 0.0
      vertex 30.6841220983644 18.2142964105943 0.875
   endloop
endfacet
facet normal -0.874574874586109 0.484890491495442 -0.0
   outer loop
      vertex 30.6841220983644 18.2142964105943 0.0
      vertex 30.747413007863 18.3284513387853 0.875
      vertex 30.747413007863 18.3284513387853 0.0
   endloop
endfacet
facet normal -0.970273352374393 0.242011614746392 -0.0
   outer loop
      vertex 30.7790018624088 18.4550974248833 0.875
      vertex 30.747413007863 18.3284513387853 0.0
      vertex 30.747413007863 18.3284513387853 0.875
   endloop
endfacet
facet normal -0.970273352374393 0.242011614746392 -0.0
   outer loop
      vertex 30.747413007863 18.3284513387853 0.0
      vertex 30.7790018624088 18.4550974248833 0.875
      vertex 30.7790018624088 18.4550974248833 0.0
   endloop
endfacet
facet normal -0.999849304650881 -0.0173599536044988 -0.0
   outer loop
      vertex 30.7767359337677 18.5856039474133 0.875
      vertex 30.7790018624088 18.4550974248833 0.0
      vertex 30.7790018624088 18.4550974248833 0.875
   endloop
endfacet
facet normal -0.999849304650881 -0.0173599536044988 -0.0
   outer loop
      vertex 30.7790018624088 18.4550974248833 0.0
      vertex 30.7767359337677 18.5856039474133 0.875
      vertex 30.7767359337677 18.5856039474133 0.0
   endloop
endfacet
facet normal -0.961287179144505 -0.27554846980595 -0.0
   outer loop
      vertex 30.7407696412319 18.711077102537 0.875
      vertex 30.7767359337677 18.5856039474133 0.0
      vertex 30.7767359337677 18.5856039474133 0.875
   endloop
endfacet
facet normal -0.961287179144505 -0.27554846980595 -0.0
   outer loop
      vertex 30.7767359337677 18.5856039474133 0.0
      vertex 30.7407696412319 18.711077102537 0.875
      vertex 30.7407696412319 18.711077102537 0.0
   endloop
endfacet
facet normal -0.857214920981627 -0.514958813155444 -0.0
   outer loop
      vertex 30.6735540282006 18.8229661020869 0.875
      vertex 30.7407696412319 18.711077102537 0.0
      vertex 30.7407696412319 18.711077102537 0.875
   endloop
endfacet
facet normal -0.857214920981627 -0.514958813155444 -0.0
   outer loop
      vertex 30.7407696412319 18.711077102537 0.0
      vertex 30.6735540282006 18.8229661020869 0.875
      vertex 30.6735540282006 18.8229661020869 0.0
   endloop
endfacet
facet normal -0.694724882568462 -0.719275564398122 -0.0
   outer loop
      vertex 30.6735540282006 18.8229661020869 0.875
      vertex 30.5796697276227 18.9136458956491 0.0
      vertex 30.6735540282006 18.8229661020869 0.0
   endloop
endfacet
facet normal -0.694724882568462 -0.719275564398122 -0.0
   outer loop
      vertex 30.5796697276227 18.9136458956491 0.0
      vertex 30.6735540282006 18.8229661020869 0.875
      vertex 30.5796697276227 18.9136458956491 0.875
   endloop
endfacet
facet normal -0.484890491495442 -0.874574874586109 -0.0
   outer loop
      vertex 30.5796697276227 18.9136458956491 0.875
      vertex 30.4655147994317 18.9769368051477 0.0
      vertex 30.5796697276227 18.9136458956491 0.0
   endloop
endfacet
facet normal -0.484890491495442 -0.874574874586109 -0.0
   outer loop
      vertex 30.4655147994317 18.9769368051477 0.0
      vertex 30.5796697276227 18.9136458956491 0.875
      vertex 30.4655147994317 18.9769368051477 0.875
   endloop
endfacet
facet normal -0.242011614746392 -0.970273352374393 -0.0
   outer loop
      vertex 30.4655147994317 18.9769368051477 0.875
      vertex 30.3388687133337 19.0085256596936 0.0
      vertex 30.4655147994317 18.9769368051477 0.0
   endloop
endfacet
facet normal -0.242011614746392 -0.970273352374393 -0.0
   outer loop
      vertex 30.3388687133337 19.0085256596936 0.0
      vertex 30.4655147994317 18.9769368051477 0.875
      vertex 30.3388687133337 19.0085256596936 0.875
   endloop
endfacet
facet normal 0.0173599536044988 -0.999849304650881 -0.0
   outer loop
      vertex 30.3388687133337 19.0085256596936 0.875
      vertex 30.2083621908037 19.0062597310525 0.0
      vertex 30.3388687133337 19.0085256596936 0.0
   endloop
endfacet
facet normal 0.0173599536044988 -0.999849304650881 -0.0
   outer loop
      vertex 30.2083621908037 19.0062597310525 0.0
      vertex 30.3388687133337 19.0085256596936 0.875
      vertex 30.2083621908037 19.0062597310525 0.875
   endloop
endfacet
endsolid part1
